<svg width="20" height="20" viewBox="0 0 20 20" fill="none" xmlns="http://www.w3.org/2000/svg">
<path d="M9.41732 16.0833C9.26454 15.9306 9.18454 15.7361 9.17732 15.5C9.1701 15.2639 9.24315 15.0694 9.39649 14.9167L13.4798 10.8333H4.16732C3.93121 10.8333 3.73315 10.7533 3.57315 10.5933C3.41315 10.4333 3.33343 10.2356 3.33399 10C3.33399 9.76389 3.41399 9.56583 3.57399 9.40583C3.73399 9.24583 3.93177 9.16611 4.16732 9.16667H13.4798L9.39649 5.08333C9.24371 4.93056 9.17065 4.73611 9.17732 4.5C9.18399 4.26389 9.26399 4.06944 9.41732 3.91667C9.5701 3.76389 9.76454 3.6875 10.0007 3.6875C10.2368 3.6875 10.4312 3.76389 10.584 3.91667L16.084 9.41667C16.1673 9.48611 16.2265 9.57306 16.2615 9.6775C16.2965 9.78194 16.3137 9.88944 16.3132 10C16.3132 10.1111 16.2959 10.2153 16.2615 10.3125C16.227 10.4097 16.1679 10.5 16.084 10.5833L10.584 16.0833C10.4312 16.2361 10.2368 16.3125 10.0007 16.3125C9.76454 16.3125 9.5701 16.2361 9.41732 16.0833Z" fill="white"/>
</svg>
