<svg id="Layer_1" data-name="Layer 1" xmlns="http://www.w3.org/2000/svg" viewBox="0 0 638.58 106.64"><defs><style>.cls-1{fill:#fff;}</style></defs><polygon class="cls-1" points="72.74 7.06 45.06 55.93 16.81 7.06 0 7.06 36.87 72.71 36.87 105.93 53.39 105.93 53.39 72.12 89.69 7.06 72.74 7.06"/><path class="cls-1" d="M146.77,102.89a52.93,52.93,0,0,1-5,3h14.48l0-10.84A69.8,69.8,0,0,1,146.77,102.89Z"/><path class="cls-1" d="M178.68,69.85v36.08h16.24V56c-.44.28-.89.58-1.33.88A90.5,90.5,0,0,0,178.68,69.85Z"/><path class="cls-1" d="M194.92,32.49V1.13H178.68v41a89.53,89.53,0,0,1,10.73-6.9Q192.09,33.77,194.92,32.49Z"/><path class="cls-1" d="M236.08,43.7l-1.4.06-1.23.07c-.43,0-.85.06-1.28.09H232l-.73.07h-.09c-.71.07-1.4.13-2.12.22-3,.35-5.89.81-8.69,1.4v60.31h16.24V43.69h-.51Z"/><path class="cls-1" d="M236.25,23.63h.34V1.13H220.35V25c1.8-.3,3.63-.54,5.48-.75A92.92,92.92,0,0,1,236.25,23.63Z"/><path class="cls-1" d="M294.29,35l.1,0c6.07,2,12.56,4.25,20.45,7.15l4.38,1.63a22.32,22.32,0,0,0-5-6.42q-7.84-7-22.39-7a63.22,63.22,0,0,0-11.31.9l13.68,3.68Z"/><path class="cls-1" d="M263.29,46.12l2.82,4.44a54.21,54.21,0,0,1,4.66-2.83Q266.93,46.83,263.29,46.12Z"/><path class="cls-1" d="M306.23,58.83v2H283.48q-13.56.15-21,6.22t-7.42,16.24a22.16,22.16,0,0,0,3.25,11.8,23.07,23.07,0,0,0,9.18,8.4,29.8,29.8,0,0,0,14,3.11A37.51,37.51,0,0,0,298.74,103a23.38,23.38,0,0,0,7.6-6.07l0,9h16L322.21,65C317.17,63,311.78,60.88,306.23,58.83ZM303.4,86.37a19.41,19.41,0,0,1-7.63,5.72,26.72,26.72,0,0,1-10.87,2.12q-6.78,0-10.67-3.11a10.11,10.11,0,0,1-3.88-8.33q0-5.51,3.81-7.91t11.73-2.4h20.38l0,6.88v0A13.61,13.61,0,0,1,303.4,86.37Z"/><path class="cls-1" d="M387.16,62.43q9.75-.13,15.26,3.74a12.22,12.22,0,0,1,5.41,9c2.19.57,4.33,1.08,6.44,1.56,3.74.84,7.31,1.55,10.75,2.12q0-10-5.65-16.65t-15.54-8.34A21.68,21.68,0,0,0,416.54,46a22.36,22.36,0,0,0,4.66-14.26,21.91,21.91,0,0,0-4-13.28A25.52,25.52,0,0,0,405.74,10a47.9,47.9,0,0,0-17.73-3H345.07V53.7c7.63,2.94,15.35,5.91,23.05,8.73ZM361.74,21.32h25.42q7.9-.13,12.43,3.32t4.52,9.82q0,6.49-4.52,10.1t-12.43,3.6H361.74Z"/><path class="cls-1" d="M391.58,91.5a39.28,39.28,0,0,1-4.42.17H361.74V80.83c-5.58-2.16-11.16-4.4-16.67-6.64v31.74H389a51.18,51.18,0,0,0,19.21-3.25,30.35,30.35,0,0,0,8-4.63c-1.22-.24-2.45-.51-3.7-.8C406,95.75,399.08,93.87,391.58,91.5Z"/><path class="cls-1" d="M443.8,80.78c1.31,0,2.6.07,3.87.07h1.27c3.91,0,7.51-.17,11-.36V30.93H443.8Z"/><path class="cls-1" d="M451.85,18.92a9.09,9.09,0,0,0,6.78-2.75,9.26,9.26,0,0,0,2.69-6.71,9.55,9.55,0,0,0-16.18-6.78,9.09,9.09,0,0,0-2.75,6.78,9.15,9.15,0,0,0,2.75,6.71A9.17,9.17,0,0,0,451.85,18.92Z"/><path class="cls-1" d="M451.25,101.51c-1.26,0-2.55,0-3.82,0s-2.41,0-3.63,0v4.42h16.1v-4.47c-1.64.06-3.29.09-4.93.09C453.49,101.55,452.33,101.54,451.25,101.51Z"/><path class="cls-1" d="M500.16,66a25.14,25.14,0,0,1,5.58-14.16q5.72-6.91,15.75-7.06,8.47,0,13.28,5a16.62,16.62,0,0,1,4.09,7.59c3-1.77,5.82-3.53,8.53-5.24,2.18-1.37,4.49-2.73,6.83-4.06a25.66,25.66,0,0,0-1.73-4.23,23.56,23.56,0,0,0-9.6-10,30.21,30.21,0,0,0-15-3.54,35.92,35.92,0,0,0-17.16,3.89,25.27,25.27,0,0,0-10.52,10.94V30.93H483.92v46.9a160,160,0,0,0,16.24-3.62Z"/><path class="cls-1" d="M491,97.06c-1.58.39-3,.71-4.28,1-1,.21-1.91.41-2.8.58v7.31h16.24V94.58c-1.71.52-3.41,1-5.08,1.45C493.8,96.37,492.47,96.71,491,97.06Z"/><path class="cls-1" d="M551.68,72.4l-.87.46-1.32.71c-2.2,1.16-4.82,2.54-7.56,3.93-.78.4-1.56.79-2.36,1.18v27.25h16.24V70.15l-2.69,1.47Z"/><path class="cls-1" d="M638.44,56.64q-.13-12.3-8-19.28t-22.39-7a60.82,60.82,0,0,0-12.5,1.13,49,49,0,0,0-10,3.25q-3.09,1.41-6.44,3.33c-.57.32-1.15.65-1.73,1s-1.14.67-1.71,1c-5.85,4-13.45,8-20.52,12-2,1.12-3.87,2.25-5.69,3.4-3.22,2-6.53,4.08-10,6.1-3,1.77-6.18,3.51-9.51,5.2a151.65,151.65,0,0,1-29.84,11.53c-5,1.36-10.42,2.55-16.24,3.53l-1.91.32c-6.1,1-12.67,1.69-19.77,2.14-.77.05-1.55.1-2.34.13-3.51.2-7.14.31-10.91.36h-1.32c-1.28,0-2.57,0-3.87-.07-3.55-.11-7.15-.39-10.8-.81q-4.08-.47-8.24-1.16-5.62-.93-11.37-2.23c-1.87-.42-3.74-.87-5.63-1.35-5.84-1.46-11.74-3.17-17.71-5-9.34-2.94-18.81-6.3-28.31-9.84-5.55-2.07-11.11-4.21-16.67-6.35-7.92-3.06-15.82-6.14-23.67-9.11l-.23-.09c-2.58-1-5.16-1.94-7.72-2.88-6.84-2.53-13.61-4.93-20.3-7.11l-20.32-5.47-11-2.95a141.38,141.38,0,0,0-19.79-2.58c-1.84-.1-3.67-.16-5.48-.17h-.34a90.65,90.65,0,0,0-10,.54c-2,.23-4,.5-5.92.82-3.24.54-6.31,1.2-9.24,2a87.05,87.05,0,0,0-16.19,5.95c-1.23.59-2.42,1.2-3.58,1.84a85.25,85.25,0,0,0-12.66,8.45,119.8,119.8,0,0,0-14.85,14.39c-2.72,3.07-5.26,6.13-7.71,9.08a152.92,152.92,0,0,1-11.67,13,50.71,50.71,0,0,1-4.24,3.65l-.3.23a31.56,31.56,0,0,1-8.27,4.58c-.49.18-1,.35-1.48.5s-.94.28-1.43.4l-.19,0c-.49.12-1,.24-1.49.33h0c-.44.1-.88.18-1.33.25s-1.18.18-1.79.25l-.91.1h-.13c-.22,0-.44,0-.67,0l-.74,0h-1.07a17.93,17.93,0,0,1-2.08.06c-.72,0-1.44-.06-2.15-.14a16.62,16.62,0,0,1-8-2.88,10.09,10.09,0,0,1-3.89-8.33q0-5.51,3.81-7.91c2.55-1.6,6.45-2.4,11.73-2.4h20.38l0,9.76c.5-.45,1-.91,1.51-1.4a155.69,155.69,0,0,0,11.61-13l2.79-3.34,0-7.81q-.15-12.3-8-19.28t-22.39-7a60.82,60.82,0,0,0-12.5,1.13,49,49,0,0,0-10,3.25,89.91,89.91,0,0,0-9.89,5.37L100,50.56a50.27,50.27,0,0,1,11.23-5.79,32.62,32.62,0,0,1,11-2q8.9,0,13.42,4.1t4.52,11.44v2.54H117.38q-13.56.15-21,6.22T89,83.33a22.15,22.15,0,0,0,3.24,11.8,23,23,0,0,0,9.19,8.4c3.48,1.82,9,2.75,18.61,2.55l2.08-.06,2.07-.09c.8-.08,2.46-.16,3.29-.26.64-.08,1.3-.17,1.94-.27.44-.06.87-.13,1.31-.21s1.08-.17,1.6-.28,1-.21,1.51-.33.87-.2,1.29-.32.59-.15.87-.24a20,20,0,0,0,2.35-.86l.68-.31c.42-.21.82-.43,1.23-.65a49.46,49.46,0,0,0,4.26-2.61,72.38,72.38,0,0,0,11.66-10.17c2.64-2.76,5.18-5.69,7.73-8.71,4.65-5.48,9.35-11.21,14.78-16.59l.15-.15c.57-.57,1.16-1.14,1.75-1.7a87.69,87.69,0,0,1,10.76-8.74c1.16-.79,2.35-1.56,3.58-2.3a75.36,75.36,0,0,1,16.19-7.32,84.15,84.15,0,0,1,9.24-2.36c2.61-.53,5.35-1,8.22-1.3.75-.09,1.48-.16,2.22-.23l.94-.08,1.48-.11,1.28-.07,1.51,0,.59,0h.5c.61,0,1.21,0,1.82,0h.5l2.66,0a126.71,126.71,0,0,1,18.31,1.86c.49.07,1,.16,1.48.25,4.85.87,9.75,2,14.71,3.27,5.46,1.43,11,3.1,16.58,4.94q6.32,2.09,12.71,4.43c5.41,2,10.86,4.08,16.34,6.25q2.85,1.11,5.72,2.27c5.7,2.28,11.42,4.61,17.15,6.94,5.55,2.24,11.11,4.48,16.67,6.65,2.58,1,5.17,2,7.75,3,6.61,2.5,13.22,4.88,19.79,7q5,1.65,10,3.11c4.73,1.38,9.43,2.62,14.11,3.69,2.09.47,4.17.92,6.24,1.31,4.49.88,8.94,1.59,13.37,2.08q5.44.6,10.8.77c1.21,0,2.42,0,3.63,0s2.56,0,3.82,0,2.49,0,3.72,0c1.65,0,3.29,0,4.93-.09.78,0,1.56-.06,2.34-.11,4.43-.23,8.81-.68,13.12-1.31,1.5-.22,3-.46,4.45-.71l2.2-.41c.64-.12,1.28-.24,1.91-.38l1.95-.41c1.4-.29,2.8-.62,4.18-.95s2.67-.66,4-1q3.09-.82,6.12-1.75c2.11-.64,4.19-1.32,6.26-2,2.27-.77,4.51-1.59,6.73-2.43l2.2-.84c1.47-.58,2.91-1.16,4.35-1.75.72-.29,1.44-.6,2.15-.9l4.21-1.83c1.33-.59,2.64-1.19,3.94-1.79l.19-.09c1.36-.63,2.71-1.27,4-1.91.67-.33,1.33-.64,2-1,1.14-.56,2.26-1.11,3.36-1.67l.54-.27c2.57-1.3,5.07-2.61,7.5-3.91l2.18-1.16,1.43-.77,4.59-2.51c9.88-5.44,17.22-9.71,26.55-15h0l.19-.13h0c.56-.38,1.13-.75,1.69-1.08s1.14-.71,1.71-1a46.13,46.13,0,0,1,7.63-3.55,32.52,32.52,0,0,1,10.94-2q8.9,0,13.42,4.1t4.52,11.44v2.54H599.74q-13.56.15-21,6.22t-7.41,16.24a22.07,22.07,0,0,0,3.25,11.8,22.94,22.94,0,0,0,9.18,8.4,29.72,29.72,0,0,0,14,3.11A37.48,37.48,0,0,0,615,103a23.38,23.38,0,0,0,7.6-6.07l0,9h16ZM619.66,86.37A19.48,19.48,0,0,1,612,92.09a26.73,26.73,0,0,1-10.88,2.12q-6.78,0-10.66-3.11a10.12,10.12,0,0,1-3.89-8.33q0-5.51,3.82-7.91t11.72-2.4h20.38l0,7A13.57,13.57,0,0,1,619.66,86.37Z"/></svg>